<svg width="118" height="17" viewBox="0 0 118 17" fill="none" xmlns="http://www.w3.org/2000/svg">
<path d="M95.3247 1.23297C95.3247 1.47813 95.252 1.71779 95.1158 1.92164C94.9796 2.12548 94.786 2.28436 94.5595 2.37818C94.333 2.472 94.0838 2.49655 93.8433 2.44872C93.6029 2.40089 93.382 2.28283 93.2086 2.10948C93.0353 1.93612 92.9172 1.71525 92.8694 1.4748C92.8216 1.23435 92.8461 0.985112 92.9399 0.758611C93.0338 0.532111 93.1926 0.338517 93.3965 0.202312C93.6003 0.0661073 93.84 -0.0065918 94.0851 -0.0065918C94.4126 -0.00231123 94.7254 0.12966 94.9569 0.361201C95.1885 0.592743 95.3204 0.90555 95.3247 1.23297Z" fill="black"/>
<path d="M36.2223 4.10836V6.14124H34.0076V11.5623C33.9639 11.9226 34.052 12.2865 34.2555 12.587C34.5503 12.8037 34.9173 12.8984 35.2802 12.8514H35.776H36.2223V15.1653C35.938 15.2123 35.6509 15.2399 35.3629 15.2479H34.4538C34.0122 15.252 33.5707 15.2299 33.1316 15.1818C32.7406 15.1486 32.3593 15.0421 32.0078 14.8678C31.6799 14.6864 31.4148 14.4097 31.2475 14.0745C31.0395 13.6601 30.9427 13.1988 30.9665 12.7357V6.14124H29.132V4.10836H30.9665V0.802856H34.0076V4.10836H36.2223Z" fill="black"/>
<path d="M40.0072 12.5044C40.2717 12.7472 40.5817 12.935 40.9193 13.057C41.257 13.179 41.6155 13.2327 41.974 13.215C42.5597 13.2369 43.1376 13.0751 43.6268 12.7523C44.0012 12.5305 44.2874 12.186 44.4366 11.7771H47.1141C46.8089 12.9245 46.1134 13.9297 45.1473 14.6199C44.1866 15.2162 43.0711 15.5152 41.941 15.4793C41.1345 15.4869 40.3335 15.3469 39.5775 15.0661C38.9088 14.8024 38.3053 14.3963 37.8091 13.8761C37.3123 13.3421 36.9299 12.7122 36.6852 12.0251C36.4121 11.2732 36.2777 10.478 36.2886 9.67815C36.2786 8.88767 36.4189 8.1025 36.7017 7.3643C36.9531 6.67289 37.3473 6.04217 37.8587 5.51322C38.366 4.99042 38.9729 4.57456 39.6436 4.29018C40.3703 3.9842 41.1526 3.83225 41.941 3.84394C42.7937 3.82513 43.6385 4.01222 44.4036 4.38935C45.0565 4.74418 45.6214 5.24123 46.0563 5.84377C46.5089 6.47679 46.8396 7.1886 47.0314 7.94276C47.2287 8.7478 47.3011 9.57834 47.2463 10.4054H39.2635C39.2338 11.1744 39.4999 11.9256 40.0072 12.5044ZM43.445 6.7032C43.2303 6.48756 42.9713 6.32118 42.6859 6.21559C42.4005 6.11 42.0956 6.06772 41.7922 6.09168C41.3707 6.07684 40.9516 6.16178 40.5692 6.3396C40.2757 6.48792 40.0167 6.69627 39.8089 6.95111C39.6206 7.17981 39.4801 7.44395 39.3957 7.72791C39.3321 7.96633 39.2878 8.20954 39.2635 8.45512H44.2218C44.1298 7.81055 43.8609 7.2041 43.445 6.7032Z" fill="black"/>
<path d="M51.7751 12.5046C52.0385 12.7489 52.3484 12.9378 52.6863 13.0599C53.0242 13.182 53.3832 13.2348 53.7419 13.2152C54.3276 13.2371 54.9055 13.0753 55.3947 12.7525C55.7648 12.5257 56.0496 12.1829 56.2045 11.7773H58.882C58.5768 12.9247 57.8813 13.9299 56.9152 14.6201C55.9246 15.2318 54.7728 15.5312 53.6097 15.4795C52.8235 15.4686 52.0455 15.3174 51.3124 15.0333C50.6436 14.7695 50.0402 14.3635 49.5439 13.8433C49.0413 13.3137 48.6581 12.6825 48.4201 11.9922C48.1413 11.2414 48.0013 10.4462 48.0069 9.6453C48 8.85652 48.1343 8.07289 48.4035 7.33144C48.6675 6.64622 49.0602 6.01788 49.5605 5.48036C50.0922 4.94105 50.7287 4.51622 51.4308 4.23199C52.1328 3.94776 52.8856 3.81015 53.6428 3.82761C54.4957 3.80683 55.3409 3.99402 56.1054 4.37302C56.7624 4.72201 57.3284 5.22014 57.7581 5.82744C58.217 6.45675 58.5483 7.16983 58.7332 7.92643C58.9384 8.73013 59.011 9.56194 58.9481 10.389H51.0314C50.9903 11.1647 51.2577 11.9252 51.7751 12.5046ZM55.2129 6.7034C54.9975 6.48866 54.7384 6.32288 54.4532 6.21735C54.168 6.11182 53.8634 6.06903 53.5601 6.09188C53.1441 6.07902 52.7309 6.16393 52.3536 6.33979C52.0573 6.48362 51.7974 6.69269 51.5933 6.95131C51.4051 7.18 51.2645 7.44414 51.1802 7.7281C51.1005 7.96266 51.0559 8.20772 51.0479 8.45531H56.0062C55.9095 7.80903 55.6348 7.20242 55.2129 6.7034Z" fill="black"/>
<path d="M62.8808 0.737061V15.1656H59.7571V0.737061H62.8808Z" fill="black"/>
<path d="M81.0615 13.0826C80.568 13.3958 79.9932 13.5568 79.4088 13.5453C78.9522 13.5556 78.4995 13.4594 78.0866 13.2644C77.7259 13.1045 77.4086 12.8608 77.161 12.5537C76.8734 12.2732 76.6482 11.9353 76.4999 11.562C76.3818 11.1593 76.3206 10.7421 76.3181 10.3225H84.4497C84.5767 9.50367 84.5486 8.6683 84.367 7.85986C84.1689 7.11516 83.8325 6.41434 83.3754 5.79392C82.9291 5.20618 82.3665 4.7167 81.7226 4.35603C80.9971 3.98402 80.191 3.79669 79.3757 3.81062C78.6067 3.796 77.8442 3.95414 77.1445 4.27339C76.5143 4.58329 75.9524 5.01597 75.4917 5.54601C75.0202 6.096 74.6558 6.72946 74.4175 7.41362C74.1656 8.13055 74.0371 8.88496 74.0373 9.64483C74.0334 10.4415 74.1562 11.2336 74.4009 11.9917C74.6102 12.6767 74.9655 13.3082 75.4422 13.8428C75.9015 14.3533 76.4651 14.7591 77.0949 15.0328C78.3627 15.5208 79.7544 15.5846 81.0615 15.2146C81.5958 15.0603 82.0991 14.8143 82.549 14.4874C83.0015 14.1671 83.3886 13.7632 83.6894 13.2974C84.0059 12.7918 84.2246 12.2311 84.334 11.6447H82.0201C81.866 12.2157 81.5294 12.7207 81.0615 13.0826ZM76.566 7.51278C76.7085 7.17669 76.91 6.86883 77.161 6.60377C77.4126 6.33986 77.7166 6.13156 78.0535 5.99225C78.4254 5.83778 78.8243 5.75912 79.227 5.76087C79.6158 5.75482 80.0006 5.83971 80.3508 6.00878C80.6737 6.17033 80.9648 6.38867 81.2103 6.65335C81.4455 6.92706 81.6302 7.24046 81.7557 7.5789C81.8887 7.94059 81.9721 8.31866 82.0036 8.70277H76.3181C76.3265 8.29419 76.4105 7.89071 76.566 7.51278Z" fill="black"/>
<path d="M92.8622 4.10876H95.3083V15.1657H92.8622V4.10876Z" fill="black"/>
<path d="M73.0785 10.5044C72.8763 10.1375 72.5938 9.82114 72.2521 9.57891C71.9109 9.33674 71.5384 9.14214 71.1447 9.00044C70.715 8.86822 70.2853 8.736 69.8391 8.63684L68.5169 8.35587C68.13 8.28453 67.7489 8.1851 67.3765 8.05837C67.0815 7.95269 66.8074 7.79605 66.5666 7.5956C66.4507 7.51268 66.3559 7.40366 66.2898 7.27733C66.2238 7.15101 66.1884 7.01092 66.1865 6.86839C66.1796 6.75978 66.1951 6.65091 66.232 6.54855C66.269 6.4462 66.3266 6.35254 66.4013 6.2734C66.5441 6.11688 66.727 6.00254 66.9302 5.94285C67.1423 5.85875 67.3646 5.80318 67.5913 5.77758H68.2028C68.6981 5.77044 69.1889 5.87199 69.6407 6.07507C69.8595 6.19428 70.046 6.36487 70.1842 6.57217C70.3224 6.77947 70.4082 7.01726 70.4341 7.26505H72.9793C72.9453 6.6807 72.7694 6.11342 72.4669 5.6123C72.1926 5.18929 71.8322 4.82886 71.4092 4.55454C70.9779 4.28195 70.5025 4.08623 70.0043 3.97608C69.4617 3.8555 68.9075 3.79453 68.3516 3.79427C67.7972 3.79184 67.2439 3.84164 66.6988 3.94302C66.1723 4.03703 65.6644 4.21564 65.1948 4.4719C64.7607 4.71466 64.3832 5.04707 64.0875 5.44703C63.7809 5.88736 63.6245 6.41476 63.6412 6.95103C63.6221 7.43863 63.7304 7.9228 63.9553 8.35587C64.1408 8.72409 64.4131 9.04171 64.7486 9.28141C65.1283 9.57087 65.5605 9.78413 66.0212 9.90946C66.4484 10.0578 66.8845 10.1792 67.3269 10.2731L68.6326 10.554C69.0199 10.6304 69.4011 10.7354 69.773 10.8681C70.0798 10.9663 70.3617 11.1298 70.5993 11.3473C70.7055 11.4476 70.7909 11.5678 70.8505 11.7011C70.91 11.8344 70.9426 11.9782 70.9464 12.1241C70.971 12.398 70.888 12.6707 70.715 12.8844C70.542 13.0745 70.3269 13.2217 70.087 13.3141C69.8216 13.4168 69.5437 13.4835 69.2606 13.5125C69.0022 13.535 68.7423 13.535 68.4838 13.5125C67.9041 13.5221 67.3327 13.3735 66.8311 13.0827C66.6 12.9289 66.408 12.7234 66.2702 12.4824C66.1325 12.2414 66.0529 11.9716 66.0377 11.6944H63.5421C63.5501 12.2679 63.6856 12.8325 63.9387 13.3472C64.1824 13.8186 64.5334 14.2262 64.9634 14.5372C65.4274 14.8708 65.9483 15.1172 66.5005 15.2644C67.1332 15.4205 67.7826 15.4982 68.4342 15.4958C68.9907 15.489 69.5448 15.4225 70.087 15.2974C70.6694 15.1919 71.2288 14.9849 71.7397 14.6859C72.205 14.4101 72.6008 14.0313 72.8967 13.5786C73.2006 13.0817 73.3555 12.5081 73.3429 11.9258C73.378 11.4372 73.2869 10.9478 73.0785 10.5044Z" fill="black"/>
<path d="M106.662 7.85986C106.464 7.11516 106.128 6.41434 105.671 5.79392C105.227 5.20386 104.664 4.71392 104.018 4.35603C103.297 3.98666 102.497 3.7994 101.688 3.81062C100.919 3.796 100.156 3.95414 99.4565 4.27339C98.8272 4.58479 98.2656 5.01725 97.8037 5.54601C97.3374 6.09689 96.9786 6.73039 96.746 7.41362C96.4941 8.13055 96.3656 8.88496 96.3658 9.64483C96.3536 10.4421 96.4765 11.2356 96.7294 11.9917C96.8844 12.6617 97.1771 13.2921 97.5889 13.8428C98.0453 14.3565 98.6097 14.7628 99.2416 15.0328C99.9762 15.33 100.763 15.4761 101.555 15.4625C102.115 15.4574 102.672 15.3739 103.208 15.2146C103.742 15.0603 104.246 14.8143 104.696 14.4874C105.139 14.1617 105.52 13.7586 105.82 13.2974C106.149 12.7965 106.374 12.2344 106.481 11.6447H104.167C103.997 12.1856 103.662 12.6595 103.208 12.9999C102.776 13.2507 102.293 13.4003 101.795 13.4375C101.297 13.4747 100.797 13.3986 100.332 13.2148C99.9768 13.0543 99.665 12.8105 99.4234 12.5041C99.183 12.2279 98.9978 11.9081 98.878 11.562C98.7518 11.1611 98.6905 10.7427 98.6962 10.3225H106.811C106.917 9.49953 106.866 8.66412 106.662 7.85986ZM98.6962 8.66971C98.7001 8.27131 98.7844 7.8778 98.9441 7.51278C99.0866 7.17669 99.2881 6.86883 99.5391 6.60377C99.7907 6.33986 100.095 6.13156 100.432 5.99225C100.803 5.83648 101.202 5.75776 101.605 5.76087C101.994 5.75661 102.378 5.84142 102.729 6.00878C103.049 6.16638 103.336 6.38538 103.572 6.65335C103.818 6.922 104.009 7.23649 104.134 7.5789C104.267 7.94059 104.35 8.31866 104.382 8.70277L98.6962 8.66971Z" fill="black"/>
<path d="M116.894 10.5044C116.692 10.142 116.416 9.8265 116.084 9.57885C115.724 9.33715 115.336 9.14273 114.927 9.00039C114.514 8.86817 114.067 8.73595 113.638 8.63678L112.299 8.35582C111.912 8.28448 111.531 8.18505 111.158 8.05832C110.864 7.95264 110.589 7.796 110.349 7.59555C110.245 7.50589 110.163 7.39389 110.108 7.26795C110.054 7.14201 110.029 7.00539 110.035 6.86834C110.028 6.75973 110.043 6.65086 110.08 6.5485C110.117 6.44614 110.175 6.35248 110.249 6.27335C110.404 6.11563 110.598 6.0016 110.811 5.9428C111.024 5.86061 111.246 5.8051 111.472 5.77752H112.084C112.58 5.76763 113.071 5.86931 113.522 6.07502C113.745 6.19105 113.935 6.36046 114.077 6.56811C114.218 6.77576 114.306 7.01519 114.332 7.265H116.877C116.829 6.68091 116.648 6.11551 116.348 5.61225C116.075 5.19356 115.721 4.83387 115.307 4.55449C114.87 4.28192 114.389 4.08627 113.886 3.97602C113.343 3.85356 112.789 3.79258 112.233 3.79422C111.706 3.79685 111.181 3.84663 110.663 3.94297C110.137 4.03891 109.629 4.2174 109.159 4.47185C108.724 4.71461 108.347 5.04702 108.051 5.44697C107.75 5.8888 107.599 6.41641 107.622 6.95098C107.605 7.43647 107.707 7.91864 107.919 8.35582C108.105 8.72404 108.377 9.04166 108.712 9.28136C109.058 9.5356 109.443 9.73105 109.853 9.85982C110.28 10.0082 110.716 10.1296 111.158 10.2234L112.464 10.5044C112.856 10.5831 113.243 10.688 113.621 10.8184C113.921 10.9206 114.197 11.0838 114.431 11.2977C114.537 11.3979 114.622 11.5181 114.682 11.6514C114.742 11.7848 114.774 11.9285 114.778 12.0745C114.801 12.3456 114.724 12.6157 114.563 12.8348C114.385 13.0271 114.164 13.1743 113.919 13.2645C113.658 13.3645 113.386 13.4312 113.109 13.4628C112.845 13.4847 112.579 13.4847 112.315 13.4628C111.736 13.4668 111.166 13.3186 110.663 13.0331C110.432 12.8793 110.24 12.6737 110.102 12.4327C109.964 12.1917 109.885 11.922 109.869 11.6448H107.374C107.368 12.218 107.498 12.7845 107.754 13.2975C107.997 13.769 108.348 14.1766 108.779 14.4875C109.247 14.8243 109.774 15.0709 110.332 15.2147C110.964 15.3729 111.614 15.4506 112.266 15.4461C112.85 15.4437 113.432 15.3772 114.001 15.2478C114.583 15.1413 115.143 14.9343 115.654 14.6363C116.119 14.3605 116.515 13.9816 116.811 13.5289C117.128 13.0371 117.289 12.4611 117.274 11.8762C117.265 11.3942 117.134 10.9223 116.894 10.5044Z" fill="black"/>
<path d="M28.3059 5.62938C28.0246 5.19628 27.6524 4.82968 27.215 4.5551C26.7435 4.27987 26.2297 4.08442 25.6945 3.97663C25.1232 3.86275 24.5417 3.80737 23.9591 3.81136C23.3711 3.80739 22.7841 3.86276 22.2072 3.97663C21.6657 4.06247 21.1446 4.24736 20.6701 4.52204C20.2128 4.78358 19.8312 5.15947 19.5628 5.61286C19.2657 6.14736 19.1226 6.75382 19.1496 7.36477C19.1356 7.79193 19.2384 8.21482 19.4471 8.58781C19.6486 8.922 19.9191 9.20936 20.2404 9.43071C20.5882 9.65911 20.9666 9.83717 21.3643 9.95959C21.783 10.0918 22.2127 10.2075 22.6534 10.3067C23.5128 10.4732 24.3582 10.7053 25.1822 11.0008C25.7937 11.2157 26.0912 11.5628 26.0912 12.0255C26.0988 12.2592 26.0354 12.4897 25.9094 12.6866C25.7833 12.8635 25.6196 13.0103 25.4301 13.1163C25.2297 13.2327 25.0122 13.3164 24.7855 13.3643C24.5602 13.3875 24.3331 13.3875 24.1079 13.3643C23.8102 13.3903 23.5104 13.3792 23.2154 13.3312C22.9513 13.2616 22.7002 13.15 22.4716 13.0007C22.2543 12.8498 22.0736 12.6521 21.9428 12.4222C21.8231 12.2096 21.7551 11.9718 21.7444 11.728H18.9017C18.9238 12.3121 19.0944 12.881 19.3975 13.3808C19.6875 13.8659 20.09 14.2741 20.571 14.5708C21.0804 14.8798 21.6396 15.0979 22.2237 15.2153C22.8429 15.3484 23.4746 15.4148 24.1079 15.4137C24.7292 15.4112 25.349 15.3503 25.959 15.2319C26.543 15.1232 27.1029 14.9105 27.6117 14.6038C28.0843 14.3021 28.4804 13.8948 28.7686 13.4138C29.0491 12.8391 29.1744 12.2009 29.1322 11.5628C29.1477 11.1144 29.0451 10.6699 28.8347 10.2736C28.6388 9.92618 28.3678 9.62691 28.0414 9.39766C27.6989 9.15206 27.3195 8.96239 26.9175 8.83572C26.496 8.68736 26.0654 8.56592 25.6284 8.47212C25.1987 8.40601 24.8681 8.25726 24.3723 8.25726C23.9785 8.18559 23.5914 8.08053 23.2154 7.94324C22.9307 7.86057 22.6662 7.71989 22.4386 7.53005C22.342 7.44971 22.265 7.34842 22.2135 7.23386C22.1619 7.11931 22.1372 6.99451 22.1411 6.86895C22.1267 6.67295 22.1856 6.4786 22.3064 6.32354C22.4173 6.18761 22.5589 6.07998 22.7196 6.00952C22.8937 5.93846 23.0776 5.8939 23.265 5.8773C23.4519 5.86135 23.6399 5.86135 23.8269 5.8773C24.3142 5.8619 24.7974 5.96992 25.2317 6.19132C25.4269 6.29618 25.5908 6.45079 25.7069 6.63946C25.823 6.82813 25.8872 7.04415 25.8928 7.26561H28.7686C28.7497 6.69068 28.5909 6.12905 28.3059 5.62938Z" fill="black"/>
<path d="M91.7048 4.12531C90.9774 4.04908 90.2421 4.12747 89.5471 4.35534C88.8521 4.5832 88.2132 4.95539 87.6721 5.44751V4.14183H85.2426V15.1987H87.6721V8.8687C87.6721 6.86887 89.4571 6.30694 91.7048 6.30694V4.12531Z" fill="black"/>
<path d="M10.9354 3.00142V1.23297C10.9354 0.904219 10.8048 0.588931 10.5723 0.356468C10.3398 0.124005 10.0246 -0.0065918 9.6958 -0.0065918C9.36705 -0.0065918 9.05176 0.124005 8.81929 0.356468C8.58683 0.588931 8.45623 0.904219 8.45623 1.23297V3.00142C7.11093 3.25197 5.87301 3.90396 4.90538 4.87159C3.93775 5.83922 3.28576 7.07714 3.03521 8.42244H1.38246C1.20878 8.40229 1.03281 8.4191 0.866092 8.47178C0.699376 8.52446 0.545689 8.61181 0.415127 8.72809C0.284564 8.84438 0.180079 8.98697 0.108533 9.14651C0.0369875 9.30604 0 9.4789 0 9.65374C0 9.82858 0.0369875 10.0014 0.108533 10.161C0.180079 10.3205 0.284564 10.4631 0.415127 10.5794C0.545689 10.6957 0.699376 10.783 0.866092 10.8357C1.03281 10.8884 1.20878 10.9052 1.38246 10.885H3.03521C3.25775 12.1001 3.80817 13.2312 4.62698 14.156C5.44579 15.0809 6.50183 15.7644 7.68094 16.1326C8.86005 16.5007 10.1174 16.5396 11.317 16.2449C12.5165 15.9503 13.6128 15.3334 14.4872 14.4608C15.3615 13.5883 15.9808 12.4933 16.2779 11.2944C16.5751 10.0954 16.5388 8.838 16.1731 7.65813C15.8074 6.47825 15.1262 5.42078 14.203 4.60004C13.2799 3.77929 12.1499 3.2265 10.9354 3.00142ZM9.6958 13.9592C8.8459 13.9592 8.01509 13.7071 7.30843 13.235C6.60176 12.7628 6.05099 12.0917 5.72574 11.3065C5.4005 10.5213 5.31541 9.65724 5.48121 8.82367C5.64702 7.99011 6.05628 7.22443 6.65725 6.62346C7.25822 6.02249 8.0239 5.61323 8.85746 5.44742C9.69103 5.28161 10.555 5.36671 11.3402 5.69195C12.1254 6.01719 12.7966 6.56797 13.2688 7.27463C13.7409 7.9813 13.993 8.81211 13.993 9.662C13.993 10.8017 13.5402 11.8947 12.7343 12.7006C11.9285 13.5064 10.8355 13.9592 9.6958 13.9592Z" fill="black"/>
<path d="M7.01845 9.66154C7.01845 10.1878 7.17451 10.7023 7.4669 11.1399C7.75928 11.5775 8.17486 11.9185 8.66108 12.1199C9.14731 12.3213 9.68233 12.374 10.1985 12.2713C10.7147 12.1687 11.1888 11.9152 11.5609 11.5431C11.9331 11.171 12.1865 10.6968 12.2892 10.1807C12.3919 9.66449 12.3392 9.12947 12.1378 8.64325C11.9364 8.15703 11.5953 7.74145 11.1577 7.44906C10.7201 7.15667 10.2057 7.00061 9.67938 7.00061C8.97366 7.00061 8.29684 7.28096 7.79782 7.77998C7.2988 8.279 7.01845 8.95582 7.01845 9.66154ZM8.88606 9.66154C8.88606 9.50464 8.93258 9.35126 9.01976 9.2208C9.10693 9.09033 9.23083 8.98865 9.37579 8.92861C9.52075 8.86856 9.68026 8.85285 9.83415 8.88346C9.98804 8.91407 10.1294 8.98963 10.2403 9.10058C10.3513 9.21153 10.4268 9.35288 10.4575 9.50677C10.4881 9.66066 10.4724 9.82017 10.4123 9.96513C10.3523 10.1101 10.2506 10.234 10.1201 10.3212C9.98966 10.4083 9.83628 10.4549 9.67938 10.4549C9.57458 10.4571 9.47041 10.4381 9.37314 10.3991C9.27587 10.36 9.18752 10.3016 9.1134 10.2275C9.03927 10.1534 8.98092 10.065 8.94185 9.96778C8.90278 9.87051 8.8838 9.76634 8.88606 9.66154Z" fill="black"/>
<path d="M4.52255 3.41437C4.52255 3.74312 4.39196 4.05841 4.15949 4.29087C3.92703 4.52333 3.61174 4.65393 3.28299 4.65393C2.95424 4.65393 2.63895 4.52333 2.40649 4.29087C2.17402 4.05841 2.04343 3.74312 2.04343 3.41437C2.04343 3.08562 2.17402 2.77033 2.40649 2.53786C2.63895 2.3054 2.95424 2.1748 3.28299 2.1748C3.61174 2.1748 3.92703 2.3054 4.15949 2.53786C4.39196 2.77033 4.52255 3.08562 4.52255 3.41437Z" fill="black"/>
</svg>
