<svg width="69" height="26" viewBox="0 0 69 26" fill="none" xmlns="http://www.w3.org/2000/svg">
<path d="M8.11703 25.2924C6.0787 25.2115 4.41103 24.6537 3.10705 23.6178C2.85819 23.4199 2.26519 22.8265 2.06624 22.5763C1.53746 21.9114 1.17796 21.2643 0.938177 20.5463C0.200327 18.3363 0.580072 15.4362 2.02436 12.2534C3.26097 9.52847 5.16912 6.82593 8.49817 3.08293C8.98856 2.53216 10.4489 0.921387 10.4583 0.921387C10.4618 0.921387 10.3822 1.05925 10.2821 1.22714C9.41647 2.67701 8.67583 4.38481 8.27235 5.86331C7.6242 8.23566 7.70238 10.2716 8.50131 11.8502C9.05243 12.9378 9.99726 13.8798 11.0597 14.4006C12.9197 15.3119 15.6428 15.3873 18.9684 14.6212C19.1973 14.5681 30.5429 11.5563 44.1809 7.92817C57.819 4.29964 68.9792 1.33324 68.9809 1.33568C68.9848 1.33883 37.296 14.8987 20.8458 21.9334C18.2407 23.0471 17.544 23.3284 16.3192 23.7584C13.1884 24.8579 10.384 25.3825 8.11703 25.2924Z" fill="black"/>
</svg>
