<svg width="53" height="35" viewBox="0 0 53 35" fill="none" xmlns="http://www.w3.org/2000/svg">
<path d="M15.6338 14.9852V23.402H12.9544V12.8224L18.4859 12.8279C20.8354 12.8279 21.6357 14.4847 21.6357 15.9896V23.402H18.9612V16.0035C18.9612 15.3731 18.6349 14.9852 17.8478 14.9852L15.6338 14.9852ZM33.8527 14.8588C32.9369 14.8588 32.2282 15.3296 31.9322 15.9687C31.7567 16.3524 31.6964 16.6465 31.6758 17.1163H35.7978C35.7449 15.9687 35.2245 14.8588 33.8527 14.8588ZM31.6758 18.9398C31.6758 20.3103 32.5277 21.3189 34.0488 21.3189C35.2322 21.3189 35.8204 20.991 36.5046 20.3103L38.1595 21.8903C37.0999 22.9364 35.9881 23.5716 34.0291 23.5716C31.4643 23.5716 29.0097 22.1731 29.0097 18.0972C29.0097 14.6147 31.1528 12.6431 33.9688 12.6431C36.8232 12.6431 38.4723 14.9513 38.4723 17.9747V18.9398H31.6758ZM26.748 23.3888C24.5652 23.3888 23.6391 21.8694 23.6391 20.3686V9.93997H26.3143V12.8224H28.3309V14.9852H26.3143V20.201C26.3143 20.8156 26.6045 21.1567 27.2426 21.1567H28.3309V23.3888H26.748ZM10.5705 11.3604H7.8728V8.79782H10.5705V11.3604ZM10.5773 23.5133C8.55707 23.3191 7.86991 22.0938 7.86991 20.6798L7.87283 12.8224H10.5773L10.5773 23.5133ZM42.7301 23.2872C40.714 23.0928 40.0301 21.8694 40.0301 20.4573V8.43311H42.7301V23.2872ZM52.1688 10.1708C49.722 -1.75855 26.5652 -2.51375 11.6391 6.57284V7.57602C26.55 -0.086917 47.6972 -0.041774 49.6239 10.9457C50.2685 14.5789 48.2212 18.3668 44.5649 20.5441V23.3927C48.9658 21.7826 53.4793 16.5617 52.1688 10.1708ZM25.0367 31.0427C14.7354 31.9949 4.00071 30.4997 2.4987 22.4501C1.76349 18.4819 3.5712 14.2754 5.96933 11.6625V10.2653C1.65224 14.051 -0.690753 18.8437 0.658096 24.5068C2.37971 31.7686 11.5927 35.8838 25.6549 34.5172C31.2186 33.9742 38.5007 32.1852 43.5633 29.4065V25.459C38.9695 28.1944 31.3679 30.4565 25.0367 31.0427Z" fill="black"/>
<path d="M45.8512 9.23189C45.8512 9.10097 45.7748 9.05938 45.6 9.05938H45.4313V9.42988C45.4558 9.42988 45.5784 9.43439 45.6 9.43439C45.7748 9.43439 45.8512 9.37603 45.8512 9.25349V9.23189ZM46.1143 10.1506H45.9144C45.8963 10.1506 45.8805 10.1393 45.8728 10.1241L45.6 9.66173C45.5951 9.65239 45.5716 9.64109 45.5623 9.64109H45.4397V10.0996C45.4397 10.1241 45.4229 10.1506 45.3907 10.1506H45.2098C45.1872 10.1506 45.1647 10.1241 45.1647 10.0996V8.93974C45.1647 8.87267 45.1908 8.84462 45.2475 8.83591C45.3114 8.82753 45.4849 8.82173 45.5784 8.82173C45.9105 8.82173 46.1114 8.91975 46.1114 9.23189V9.25349C46.1114 9.44664 46.0153 9.54854 45.8663 9.59852L46.1491 10.0767C46.1509 10.0864 46.1575 10.0996 46.1575 10.1109C46.1575 10.1296 46.1462 10.1506 46.1143 10.1506ZM45.6396 8.61244C45.1476 8.61244 44.7497 9.01874 44.7497 9.50791C44.7497 9.99772 45.1476 10.3976 45.6396 10.3976C46.1291 10.3976 46.5309 9.99772 46.5309 9.50791C46.5309 9.01874 46.1291 8.61244 45.6396 8.61244ZM45.6396 10.582C45.0418 10.582 44.5649 10.0996 44.5649 9.50791C44.5649 8.91716 45.0418 8.43347 45.6396 8.43347C46.231 8.43347 46.717 8.91716 46.717 9.50791C46.717 10.0996 46.231 10.582 45.6396 10.582Z" fill="black"/>
</svg>
